<?xml version="1.0" encoding="UTF-8"?><svg id="Layer_1" xmlns="http://www.w3.org/2000/svg" viewBox="0 0 1024 1024"><defs><style>.cls-1{fill:#005c96;}.cls-2{fill:#fff;}.cls-3{fill:#ec3540;stroke:#005c96;stroke-miterlimit:10;stroke-width:33.26px;}.cls-4{fill:#25bfef;}</style></defs><path class="cls-1" d="M695.7,612.11l45.53,18.66c71.84,7.5,153.85-40.38,159.66-68.51l-39.51,7.53c51.16-30.57,96.55-127.39,70.36-197.58-.01.06-6.27,33-36.82,48.21,59.64-168.94-178.12-156.32-100.72-278.06,0,0-87.66,4.55-110.73,103.38-23.07,98.83,42.03,89.67,57.95,162.39,15.92,72.73-90.04,89.28-122.03,40.66-6.3,1.42,30.63,117.87,22.65,141.63"/><path class="cls-2" d="M746.73,195.87s-1.78,39.52,36.05,68.61c33.48,25.74,98.2,58.35,75.44,148.3-5.39,21.29-16.07,40.88-30.77,57.19-7.09,7.86-13.91,15.42-15.01,16.58,0,0,29.66,15.3,85.88-29.7,0,0-35.15,127.71-163.2,113.51,0,0,11.23,23.58,68.87,27.26,0,0-56.11,36.72-144.37-23.14,0,0,12.78-39.53-.11-60.43,0,0,56.79,19.89,110.48-57.29,19.31-27.77,11.51-73.66-15.11-108.26-32.83-42.68-56.9-96.73-8.13-152.61Z"/><path class="cls-4" d="M735.11,570.35c128.05,14.21,163.2-113.51,163.2-113.51-56.22,45.01-85.88,29.7-85.88,29.7,79.32-78.23,20.84-154.46-10.57-174.33-31.41-19.87-39.17-37.42-39.17-37.42,6.67,50.92,74.52,115.81,7.34,181.98l-.05-.04c-53.68,77.18-137.94,46.98-137.94,46.98,12.9,20.91,27.57,70.75,27.57,70.75,88.26,59.85,144.37,23.14,144.37,23.14-57.64-3.68-68.87-27.26-68.87-27.26Z"/><polygon class="cls-3" points="521.53 253.1 567.47 424.36 738.73 378.41 613.42 503.72 738.73 629.03 567.47 583.09 521.53 754.34 475.58 583.09 304.32 629.03 429.63 503.72 304.32 378.41 475.58 424.36 521.53 253.1"/></svg>