<?xml version="1.0" encoding="UTF-8" standalone="no"?>
<!DOCTYPE svg PUBLIC "-//W3C//DTD SVG 1.1//EN" "http://www.w3.org/Graphics/SVG/1.1/DTD/svg11.dtd">
<svg width="928px" height="700px" version="1.1" xmlns="http://www.w3.org/2000/svg" xmlns:xlink="http://www.w3.org/1999/xlink" xml:space="preserve" xmlns:serif="http://www.serif.com/" style="fill-rule:evenodd;clip-rule:evenodd;stroke-linejoin:round;stroke-miterlimit:2;">
    <g transform="matrix(1,0,0,1,-41,-44)">
        <path d="M935.04,583.27L934.38,562.78L916.53,562.78L915.87,552.2L887.45,552.2L887.45,574.67L862.99,572.69L862.33,535.67L823.33,535.67L823.33,572.02L814.74,569.38L814.74,552.19L781.03,552.19L780.37,569.38L745.34,568.06L746.66,552.2C785.78,563.88 871.69,465.06 867.62,437.85L834.57,457.68C870.49,413.29 879.32,311.21 832.59,256.74C832.59,256.8 837.86,288.49 815.4,312.26C813.23,140.62 603.57,230.51 632.96,95.45C632.96,95.45 555.62,128.5 567.52,225.01C579.42,321.52 634.94,291.77 673.28,351.92C711.62,412.07 617.15,457.84 582.77,419.69L538,419.69L538,381.46L525.66,381.46L525.66,166.85L510.68,166.85L510.68,132.37L506.71,132.37L506.71,55.47L502.3,55.47L502.3,132.37L498.33,132.37L498.33,159.47L478.06,159.47L478.06,132.37L474.2,132.37L474.2,65.17L469.91,65.17L469.91,132.37L465.94,132.37L465.71,166.85L455.58,166.85L455.58,264.35L430.02,264.35L430.02,381.46L415.92,381.46L416.34,480.76L408.87,481.48L389.26,260.38L377.36,260.38L375.38,159.25L368.11,159.25L366.13,260.38L341.67,260.38L339.69,159.25L332.42,159.25L330.44,260.38L318.74,260.38L301.79,479.49L256.84,480.81L256.18,503.94L241.64,515.84L240.32,442.63L231.16,442.63L231.06,372.23L223.9,372.23L223.79,328.77L219.27,322.79L219.17,315.82L209.92,312.9L204.63,252.09L198.68,312.9L189.98,315.82L189.48,322.79L184.8,328.77L184.8,373.6C179.99,373.64 179.59,373.62 179.59,373.62L179.51,442.63L168.93,442.63L168.93,453.36C170.62,454.55 172.24,455.78 173.75,457.02C175.66,456.06 177.76,455.39 179.99,455.03C187.69,453.8 195.41,456.67 200.15,462.51C205.19,468.73 206.57,476.75 203.84,483.97C202.66,487.09 200.77,489.86 198.37,492.12C199.71,495.98 200.72,499.8 201.39,503.61C205.17,504.52 208.61,506.34 211.4,509C216.85,514.2 218.97,521.78 217.21,529.81C215.73,536.58 210.82,542.14 204.07,544.7C201.93,545.51 199.7,545.98 197.47,546.11C196.69,548.2 195.84,550.22 194.94,552.11C194.18,553.72 193.34,555.2 192.51,556.57C194,558.53 195.16,560.76 195.9,563.19C198.05,570.2 196.47,577.78 191.66,583.47C188.77,586.89 185.09,589.26 181.07,590.43L185.16,597.8C287.75,585.67 402.97,578.86 524.77,578.86C688.71,578.86 840.78,591.19 966.09,612.22L966.09,587.22L935.02,583.25L935.04,583.27Z" style="fill:rgb(0,92,150);fill-rule:nonzero;"/>
        <path d="M85,599.03C79.88,599.74 74.6,598.51 69.94,595.41C66.6,593.19 64.01,590.12 62.36,586.61L57.89,587.23L58.48,612.6C58.52,614.2 59.95,615.4 61.53,615.15C64.86,614.63 71.18,613.72 81.35,612.58L85.01,599.03L85,599.03Z" style="fill:rgb(0,92,150);fill-rule:nonzero;"/>
        <path d="M607.93,159.24C607.93,159.24 619.39,195.37 663.01,209.04C701.62,221.13 770.6,229.08 779.85,317.5C782.04,338.43 778.9,359.57 771.07,379.1C767.29,388.51 763.65,397.56 763.05,398.97C763.05,398.97 794.78,402.94 830.47,343.89C830.47,343.89 841.05,470.36 721.18,499.89C721.18,499.89 739.07,517.38 792.13,501.65C792.13,501.65 753.79,553.21 654.64,528.53C654.64,528.53 640.98,477.41 622.47,462.87C622.47,462.87 692.22,473.34 715.01,386.19C723.21,354.84 701.03,316.15 665.66,293.82C622.03,266.28 582.53,225.62 607.93,159.25L607.93,159.24Z" style="fill:white;fill-rule:nonzero;"/>
        <path d="M721.19,499.88C841.05,470.36 830.48,343.88 830.48,343.88C794.79,402.93 763.06,398.96 763.06,398.96C808.56,302.4 730.78,253.15 695.97,245.66C661.16,238.17 648.38,224.95 648.38,224.95C671.2,268.54 753.66,304.49 715.09,386.2L715.03,386.18C692.24,473.33 622.49,462.86 622.49,462.86C641,477.4 654.66,528.52 654.66,528.52C753.81,553.2 792.15,501.64 792.15,501.64C739.09,517.37 721.2,499.88 721.2,499.88L721.19,499.88Z" style="fill:rgb(37,191,239);fill-rule:nonzero;"/>
        <path d="M322.18,592.41C321.46,592.43 320.75,592.43 320.03,592.41C304.57,591.83 291.15,578.78 289.48,562.7C285.12,520.66 334.87,490.29 370.93,485.38C392.95,482.37 417.08,484.32 437.13,490.71C463.33,499.06 481.49,514.44 489.65,535.19C496.45,552.5 494.48,568.74 484.37,578.66C474.4,588.44 459,590.02 442.11,583C434.74,579.94 428.29,576.25 422.59,572.99C408.49,564.92 399.17,559.59 382.29,564.25C375.66,566.08 367.14,571.41 358.9,576.57C346.24,584.49 334.25,592 322.19,592.41L322.18,592.41ZM374.13,508.84C348.06,512.4 310.39,534.71 313.04,560.25C313.49,564.55 317.24,568.59 320.91,568.73C326.4,568.94 337.45,562.03 346.32,556.48C356,550.42 366.01,544.15 375.97,541.4C402.36,534.12 419.35,543.83 434.34,552.41C439.68,555.46 445.19,558.62 451.19,561.11C458.65,564.21 465.01,564.45 467.78,561.73C470.06,559.49 471.38,553.47 467.6,543.84C454.63,510.83 403.38,504.85 374.13,508.84Z" style="fill:white;fill-rule:nonzero;"/>
        <path d="M372.52,497.1C408.9,492.14 463.46,500.94 478.61,539.51C488.85,565.58 473.41,583.18 446.63,572.05C422.59,562.06 409.07,544.55 379.11,552.82C360.21,558.04 336.75,581.18 320.45,580.57C310.46,580.2 302.25,571.2 301.24,561.47C297.66,526.91 342.84,501.15 372.51,497.1L372.52,497.1Z" style="fill:rgb(37,191,239);fill-rule:nonzero;"/>
        <path d="M599.4,304.01L610.98,347.17L654.14,335.59L622.56,367.17L654.14,398.75L610.98,387.17L599.4,430.33L587.82,387.17L544.66,398.75L576.24,367.17L544.66,335.59L587.82,347.17L599.4,304.01Z" style="fill:rgb(236,53,64);fill-rule:nonzero;"/>
        <path d="M83.08,742.18C74.52,707.56 65.86,672.97 57.08,638.41C66.13,637.12 70.66,636.49 79.71,635.27C83.18,651.17 86.63,667.07 90.06,682.98C92.57,696.15 95.08,709.32 97.58,722.49C99.15,722.28 99.94,722.18 101.52,721.97C99.67,708.71 97.83,695.45 95.98,682.2C97.34,665.88 98.74,649.56 100.2,633.24C109.8,632 119.4,630.81 129.01,629.67C134.41,645.14 139.76,660.62 145.06,676.12C146.51,689.43 147.95,702.74 149.4,716.04C150.98,715.86 151.77,715.77 153.34,715.58C152.54,702.2 151.75,688.81 150.98,675.43C150.42,659.16 149.88,642.9 149.36,626.63C158.43,625.6 162.97,625.11 172.05,624.15C171.99,659.81 172.04,695.47 172.2,731.13C160.33,732.43 148.47,733.8 136.61,735.23C133.63,725.63 130.64,716.04 127.62,706.45C124.63,686.94 121.63,667.44 118.61,647.94C117.06,648.13 116.28,648.23 114.73,648.42C116.57,668.07 118.43,687.71 120.29,707.36C119.71,717.39 119.15,727.43 118.61,737.46C106.76,738.96 94.91,740.54 83.08,742.18Z" style="fill:rgb(0,92,150);fill-rule:nonzero;"/>
        <path d="M187.89,729.45C184.21,694.18 180.53,658.91 176.86,623.64C185.88,622.7 190.39,622.24 199.42,621.37C202.85,656.66 206.28,691.96 209.71,727.25C200.98,728.1 196.62,728.54 187.9,729.45L187.89,729.45Z" style="fill:rgb(0,92,150);fill-rule:nonzero;"/>
        <path d="M217.71,726.49C214.37,691.19 211.03,655.89 207.69,620.58C218.57,619.57 229.46,618.6 240.35,617.66C244.31,628.67 248.24,639.68 252.14,650.71C256.35,668.73 260.52,686.76 264.65,704.8C266.17,704.68 266.93,704.62 268.46,704.5C265.97,690.24 263.47,675.99 260.96,661.74C259.17,646.63 257.37,631.52 255.56,616.41C264.29,615.72 268.66,615.38 277.4,614.75C279.97,650.12 282.54,685.48 285.11,720.85C274.04,721.68 262.97,722.54 251.9,723.44C248.02,712.11 244.11,700.78 240.17,689.47C236.6,671.67 233,653.88 229.38,636.09C227.7,636.24 226.86,636.31 225.19,636.46C227.92,652.32 230.63,668.19 233.32,684.06C235.16,697.56 236.98,711.06 238.8,724.56C230.36,725.3 226.14,725.69 217.7,726.48L217.71,726.49Z" style="fill:rgb(0,92,150);fill-rule:nonzero;"/>
        <path d="M293.13,720.28C290.65,684.91 288.17,649.53 285.69,614.16C295.88,613.44 306.08,612.77 316.28,612.16C327.59,611.48 335.89,613.15 341.16,617.11C346.42,621.07 349.37,627.92 350.08,637.59C350.53,643.73 350.93,649.58 351.26,655.11C351.59,660.64 351.87,666.18 352.1,671.71C352.33,677.25 352.51,683.11 352.69,689.26C352.97,698.99 350.78,706.13 346.11,710.64C341.44,715.15 333.65,717.7 322.72,718.36C312.86,718.95 302.99,719.6 293.14,720.29L293.13,720.28ZM313.88,701.31C316.99,701.11 318.54,701.02 321.65,700.83C324.73,700.64 327.04,699.86 328.57,698.49C330.11,697.11 330.82,695.22 330.75,692.84C330.6,688.12 330.47,683.38 330.27,678.68C330.07,673.99 329.84,669.29 329.57,664.6C329.3,659.91 328.99,655.21 328.65,650.5C328.31,645.79 327.9,641.07 327.5,636.41C327.3,634.08 326.36,632.31 324.64,631.15C322.92,629.99 320.48,629.5 317.33,629.69C314.15,629.88 312.56,629.98 309.39,630.18C310.88,653.89 312.38,677.6 313.87,701.31L313.88,701.31Z" style="fill:rgb(0,92,150);fill-rule:nonzero;"/>
        <path d="M378.78,715.46C378.35,705.36 378.14,700.31 377.71,690.22L377.71,690.09C369.18,663.42 360.49,636.79 351.65,610.22C360.88,609.76 365.5,609.55 374.73,609.16C377.76,619.36 379.27,624.46 382.26,634.67C383.43,645.05 384.59,655.43 385.74,665.8C387.4,665.73 388.23,665.7 389.89,665.64C390.23,655.2 390.58,644.77 390.94,634.33C393.13,623.92 394.23,618.72 396.46,608.31C405.69,607.98 410.31,607.83 419.55,607.57C412.8,634.75 406.21,661.97 399.78,689.22L399.78,689.35C400.14,699.45 400.32,704.5 400.68,714.6C391.93,714.91 387.55,715.08 378.8,715.45L378.78,715.46Z" style="fill:rgb(0,92,150);fill-rule:nonzero;"/>
        <path d="M484.59,714.09C473.6,714.18 465.76,712.24 461.04,708.19C456.32,704.14 453.68,697.29 453.32,687.77C453.18,684.12 453.08,679.84 452.94,675.01C452.8,670.18 452.68,665.16 452.59,659.95C452.49,654.74 452.43,649.71 452.39,644.86C452.35,640.01 452.31,635.69 452.3,631.93C452.28,623.84 454.75,617.33 459.67,612.49C464.59,607.65 472.6,605.14 483.68,605.05C494.55,604.96 502.44,606.99 507.32,611.09C512.2,615.18 514.76,622.02 515.06,631.53C515.11,632.99 515.13,634.58 515.13,636.28C515.13,637.99 515.1,639.69 515.05,641.4C515,643.11 514.95,644.69 514.9,646.15C505.95,646.14 501.48,646.15 492.54,646.2C492.58,644.56 492.62,642.62 492.66,640.38C492.7,638.14 492.71,635.9 492.7,633.66C492.69,631.42 492.65,629.48 492.59,627.84C492.52,625.72 491.73,624.08 490.2,622.93C488.66,621.79 486.55,621.23 483.84,621.25C480.99,621.27 478.77,621.87 477.21,623.04C475.65,624.21 474.82,625.86 474.75,627.99C474.59,632.64 474.52,637.68 474.51,643.09C474.5,648.5 474.52,654.02 474.59,659.64C474.65,665.27 474.76,670.78 474.89,676.16C475.03,681.54 475.21,686.55 475.47,691.15C475.59,693.32 476.43,694.98 477.99,696.14C479.54,697.3 481.71,697.86 484.5,697.84C487.38,697.82 489.6,697.21 491.16,696.03C492.72,694.85 493.51,693.16 493.55,691C493.58,689.41 493.62,687.49 493.63,685.25C493.64,683.01 493.63,680.77 493.59,678.53C493.55,676.29 493.5,674.38 493.45,672.78C502.32,672.73 506.76,672.72 515.63,672.73C515.72,674.86 515.77,677.27 515.77,679.98C515.77,682.68 515.7,685.12 515.61,687.23C515.23,696.73 512.74,703.65 507.94,707.77C503.14,711.9 495.39,713.97 484.64,714.06L484.59,714.09Z" style="fill:rgb(0,92,150);fill-rule:nonzero;"/>
        <path d="M522.17,712.67C522.3,677.21 522.42,641.75 522.55,606.29C531.61,606.32 536.14,606.35 545.19,606.45C544.81,641.91 544.44,677.37 544.06,712.82C535.3,712.73 530.92,712.7 522.16,712.66L522.17,712.67Z" style="fill:rgb(0,92,150);fill-rule:nonzero;"/>
        <path d="M565.88,713.14C566.4,683.54 566.92,653.93 567.44,624.33C559.72,624.19 555.87,624.14 548.15,624.05C548.23,617.03 548.27,613.52 548.35,606.5C568.83,606.77 589.3,607.21 609.78,607.8C609.56,614.82 609.46,618.33 609.24,625.34C601.53,625.1 597.67,625 589.95,624.81C589.22,654.41 588.49,684.01 587.76,713.61C579,713.39 574.63,713.3 565.87,713.15L565.88,713.14Z" style="fill:rgb(0,92,150);fill-rule:nonzero;"/>
        <path d="M626.74,714.8C627.12,704.7 627.3,699.65 627.68,689.55L627.68,689.42C621.3,662.15 614.75,634.92 608.05,607.73C617.29,608.01 621.9,608.16 631.14,608.51C633.35,618.92 634.44,624.12 636.61,634.54C636.95,644.98 637.28,655.42 637.6,665.85C639.26,665.92 640.09,665.95 641.75,666.02C642.92,655.64 644.1,645.27 645.29,634.89C648.3,624.69 649.81,619.59 652.86,609.4C662.09,609.81 666.71,610.03 675.94,610.5C667.05,637.06 658.32,663.66 649.74,690.32L649.74,690.45C649.29,700.55 649.07,705.59 648.62,715.69C639.87,715.3 635.49,715.12 626.74,714.8Z" style="fill:rgb(0,92,150);fill-rule:nonzero;"/>
        <path d="M702.2,718.53C704.38,683.14 706.55,647.74 708.73,612.35C726.12,613.45 743.49,614.66 760.87,615.98C760.33,622.98 760.05,626.48 759.51,633.48C749.73,632.71 739.94,632 730.14,631.33C729.43,641.68 729.08,646.85 728.37,657.2C739.43,657.96 744.96,658.36 756.01,659.22C755.47,666.22 755.2,669.72 754.66,676.72C743.67,675.87 738.17,675.47 727.17,674.71C726.14,689.79 725.1,704.87 724.07,719.95C715.33,719.35 710.95,719.07 702.21,718.53L702.2,718.53Z" style="fill:rgb(0,92,150);fill-rule:nonzero;"/>
        <path d="M787.3,726.27C776.39,725.3 768.75,722.6 764.37,718.11C759.99,713.62 758.08,706.58 758.7,697.04C759.58,683.58 760.54,670.05 761.6,656.62C762.66,643.21 763.86,629.74 765.09,616.31C774.13,617.02 778.64,617.4 787.68,618.18C786.71,627.04 785.81,636.28 784.95,645.91C784.09,655.53 783.29,665.17 782.54,674.8C781.79,684.43 781.12,693.75 780.41,702.58C780.24,704.73 780.86,706.48 782.32,707.78C783.78,709.09 785.92,709.86 788.75,710.11C791.62,710.37 793.86,709.98 795.45,708.95C797.04,707.92 797.93,706.31 798.14,704.16C799,695.34 799.99,686.05 800.95,676.44C801.91,666.83 802.82,657.2 803.68,647.58C804.54,637.96 805.28,628.7 805.89,619.81C814.92,620.64 819.43,621.07 828.46,621.96C827.34,635.4 826.17,648.87 824.84,662.26C823.51,675.66 822.01,689.13 820.48,702.55C819.39,712.06 816.29,718.64 811.21,722.29C806.13,725.94 798.17,727.25 787.31,726.28L787.3,726.27Z" style="fill:rgb(0,92,150);fill-rule:nonzero;"/>
        <path d="M824.95,728.51C828.52,693.23 832.1,657.95 835.67,622.67C845.35,623.65 855.02,624.67 864.68,625.74C875.9,626.98 883.77,629.92 888.27,634.49C892.77,639.06 894.62,645.98 893.87,655.21C893.67,657.68 893.47,659.85 893.27,661.7C893.07,663.55 892.85,665.4 892.6,667.24C892.35,669.08 892.02,671.24 891.63,673.69C890.73,679.37 889.1,683.94 886.73,687.36C884.35,690.78 881.02,693.22 876.72,694.68C879.81,708.2 882.84,721.73 885.82,735.27C876.59,734.15 871.97,733.61 862.73,732.56C860.4,720.24 858.03,707.94 855.61,695.64C853.61,695.42 852.61,695.31 850.61,695.09C849.32,706.99 848.03,718.89 846.74,730.78C838.02,729.83 833.66,729.38 824.93,728.49L824.95,728.51ZM852.52,677.66C855.06,677.94 856.33,678.07 858.88,678.36C861.98,678.7 864.39,678.33 866.12,677.23C867.84,676.13 868.9,674.44 869.32,672.17C869.71,670.03 870.07,667.78 870.39,665.43C870.71,663.08 870.98,660.72 871.19,658.36C871.41,656 871.56,653.72 871.66,651.56C871.77,649.21 871.11,647.32 869.66,645.88C868.21,644.45 865.91,643.55 862.77,643.21C860.2,642.93 858.91,642.79 856.34,642.51C855.07,654.23 853.8,665.95 852.53,677.68L852.52,677.66Z" style="fill:rgb(0,92,150);fill-rule:nonzero;"/>
        <path d="M919.1,740.84C908.47,739.43 901.15,736.44 897.13,731.78C893.11,727.12 891.4,719.97 892.17,710.47C892.28,709.06 892.46,707.5 892.67,705.81C892.88,704.12 893.13,702.43 893.44,700.75C893.74,699.07 894.11,697.54 894.52,696.16C902.81,697.18 906.96,697.7 915.24,698.77C914.63,701.95 914.1,705.1 913.65,708.22C913.2,711.33 912.95,714.21 912.91,716.84C912.87,719.02 913.52,720.8 914.86,722.15C916.19,723.51 918.31,724.38 921.23,724.76C924.09,725.14 926.27,724.84 927.77,723.85C929.26,722.87 930.31,721.31 930.88,719.2C931.28,717.74 931.61,716.27 931.88,714.81C932.15,713.35 932.35,711.88 932.48,710.4C932.61,708.92 932.65,707.4 932.68,705.9C932.71,704.05 932.32,702.27 931.45,700.64C930.57,699 928.99,697.76 926.71,696.92C922.03,695.17 919.69,694.3 915.01,692.57C910.06,690.73 906.22,688.51 903.5,685.92C900.78,683.32 898.94,680.3 897.99,676.83C897.04,673.36 896.74,669.4 897.14,665C897.32,663.07 897.51,661.33 897.7,659.81C897.89,658.29 898.09,656.71 898.35,655.1C899.35,648.89 901.24,643.91 903.84,640.3C906.44,636.69 910.12,634.28 914.9,633.07C919.67,631.86 925.85,631.75 933.4,632.75C944.05,634.16 951.5,637.26 955.72,641.99C959.94,646.72 961.57,653.86 960.7,663.34C960.53,665.24 960.22,667.55 959.75,670.26C959.29,672.97 958.82,675.48 958.34,677.78C949.82,676.57 945.55,675.98 937.02,674.83C937.58,671.82 938.09,668.8 938.55,665.78C939.01,662.76 939.34,659.68 939.63,656.67C939.84,654.58 939.23,652.81 937.72,651.45C936.21,650.08 934.06,649.21 931.27,648.85C928.28,648.46 925.99,648.74 924.4,649.69C922.81,650.64 921.72,652.17 921.16,654.23C920.57,656.42 920.13,658.68 919.84,660.96C919.54,663.25 919.39,665.54 919.41,667.81C919.42,669.59 919.92,671.29 920.86,672.89C921.81,674.49 923.5,675.71 925.95,676.57C930.03,678.02 932.08,678.75 936.15,680.21C941.51,682.14 945.61,684.49 948.46,687.23C951.31,689.98 953.19,693.15 954.11,696.75C955.03,700.35 955.25,704.43 954.81,708.97C954.71,709.99 954.59,711.04 954.43,712.14C954.27,713.24 954.09,714.33 953.89,715.42C953.69,716.51 953.49,717.56 953.29,718.56C951.5,727.98 948.03,734.4 942.89,737.84C937.75,741.28 929.83,742.26 919.1,740.85L919.1,740.84Z" style="fill:rgb(0,92,150);fill-rule:nonzero;"/>
        <g id="xDaSDa.tif">
            <path d="M94.98,610.65L102.7,582.02L94.39,578.62C92.95,586.63 84.87,590.94 77.76,586.21C70.65,581.48 71.72,571.44 79.04,568.05C76.69,564.22 73,561.14 70.3,557.28C67.6,553.42 64.95,548.58 63.07,544.13C44.77,557.16 35.72,524.93 57.92,526C57.61,516.76 57.62,507.4 60.67,498.57L60.17,497.67C50.57,498.19 45.36,486.31 52.17,479.55C57.22,474.54 64.16,475.88 68.76,480.69C74.15,473.19 80.46,466.15 88.51,461.45C88.29,459.35 86.32,458.74 85.29,456.58C81.98,449.57 87.08,441.55 94.79,441.33C101.29,441.15 106.27,446.94 105.89,453.29C114.72,450.34 124.85,449.36 134.05,450.89C130.81,438.55 148.33,431.62 154.02,442.72C156.85,448.24 154.61,451.05 152.55,456.01C161.31,459.22 168.68,465.2 175.3,471.61L176.04,471.55C178.66,464.69 188.75,463.75 193.32,469.4C199.06,476.47 194.76,485.77 186.15,487.21C190.32,495.82 193,504.84 193.11,514.47C202.11,512.05 210.34,517.52 208.17,527.41C206.62,534.5 197.3,537.35 191.61,533.17C190.51,537.87 188.78,542.98 186.71,547.35C184.69,551.61 181.58,555.27 179.91,559.44C187.3,561.5 190.03,570.34 184.97,576.32C179.22,583.12 169.34,580.48 166.56,572.45L161.89,575.41L175.1,599.22L160.53,601.06L150.47,581L140.71,583.93C149.28,604.91 116.86,607.67 121.76,585.54L115.02,585.08L110.03,608.22L94.93,610.61L94.98,610.65ZM116.68,458.56C105.39,459.82 94.93,465.09 86.34,472.27L120.82,507.22L116.68,458.56ZM124.36,457.91L128.5,506.57L156.58,466.29C146.9,460.67 135.7,457.23 124.36,457.9L124.36,457.91ZM115.1,512.87L80.42,478.17C73.05,486.64 67.47,497.55 66.27,508.75L115.1,512.87ZM182.52,498.86C179.43,488.07 172.13,478.14 163.41,471.11L135.09,511.17L182.52,498.86ZM114.22,520.69L65.37,516.59C64.75,527.93 68.29,539.13 73.8,548.89L114.22,520.69ZM184.72,506.44L137.29,518.98L181.59,539.75C185.91,529.38 187.15,517.48 184.71,506.44L184.72,506.44ZM118.93,527.52L78.5,555.46C85.28,564.05 94.5,570.65 104.7,574.57L118.92,527.52L118.93,527.52ZM157.53,568.58C158.24,568.99 160.64,566.96 161.41,566.42C168.3,561.52 174.28,554.31 178.35,546.96L133.78,526.25L157.52,568.58L157.53,568.58ZM117.53,577.66C127.39,579.04 138.07,578.29 147.11,573.88L127.78,537.61L117.53,577.66Z" style="fill:rgb(37,191,239);fill-rule:nonzero;"/>
        </g>
    </g>
</svg>
