<?xml version="1.0" encoding="UTF-8"?><svg id="Layer_1" xmlns="http://www.w3.org/2000/svg" viewBox="0 0 1024 1024"><defs><style>.cls-1{fill:#005c96;}.cls-2{fill:#ec3540;}.cls-3{fill:#fff;}.cls-4{fill:#25bfef;}</style></defs><path class="cls-1" d="M935.04,583.27l-.66-20.49h-17.85l-.66-10.58h-28.42v22.47l-24.46-1.98-.66-37.02h-39v36.35l-8.59-2.64v-17.19h-33.71l-.66,17.19-35.03-1.32,1.32-15.86c39.12,11.68,125.03-87.14,120.96-114.35l-33.05,19.83c35.92-44.39,44.75-146.47-1.98-200.94,0,.06,5.27,31.75-17.19,55.52-2.17-171.64-211.83-81.75-182.44-216.81,0,0-77.34,33.05-65.44,129.56,11.9,96.51,67.42,66.76,105.76,126.91s-56.13,105.92-90.51,67.77h-44.77v-38.23h-12.34v-214.61h-14.98v-34.48h-3.97V55.47h-4.41v76.9h-3.97v27.1h-20.27v-27.1h-3.86v-67.2h-4.29v67.2h-3.97l-.23,34.48h-10.13v97.5h-25.56v117.11h-14.1l.42,99.3-7.47.72h0s-19.61-221.1-19.61-221.1h-11.9l-1.98-101.13h-7.27l-1.98,101.13h-24.46l-1.98-101.13h-7.27l-1.98,101.13h-11.7l-16.95,219.11h0l-44.95,1.32-.66,23.13-14.54,11.9-1.32-73.21h-9.16l-.1-70.4h-7.16s-.11-43.46-.11-43.46h0s-4.52-5.98-4.52-5.98l-.1-6.97-9.25-2.92s0,0,0,0l-5.29-60.81-5.95,60.81-8.7,2.92h0s-.5,6.97-.5,6.97h0s-4.68,5.98-4.68,5.98v44.83c-4.81.04-5.21.02-5.21.02l-.08,69.01h-10.58v10.73c1.69,1.19,3.31,2.42,4.82,3.66,1.91-.96,4.01-1.63,6.24-1.99,7.7-1.23,15.42,1.64,20.16,7.48,5.04,6.22,6.42,14.24,3.69,21.46-1.18,3.12-3.07,5.89-5.47,8.15,1.34,3.86,2.35,7.68,3.02,11.49,3.78.91,7.22,2.73,10.01,5.39,5.45,5.2,7.57,12.78,5.81,20.81-1.48,6.77-6.39,12.33-13.14,14.89-2.14.81-4.37,1.28-6.6,1.41-.78,2.09-1.63,4.11-2.53,6-.76,1.61-1.6,3.09-2.43,4.46,1.49,1.96,2.65,4.19,3.39,6.62,2.15,7.01.57,14.59-4.24,20.28-2.89,3.42-6.57,5.79-10.59,6.96l4.09,7.37c102.59-12.13,217.81-18.94,339.61-18.94,163.94,0,316.01,12.33,441.32,33.36v-25l-31.07-3.97Z"/><path class="cls-1" d="M85,599.03c-5.12.71-10.4-.52-15.06-3.62-3.34-2.22-5.93-5.29-7.58-8.8l-4.47.62.59,25.37c.04,1.6,1.47,2.8,3.05,2.55,3.33-.52,9.65-1.43,19.82-2.57l3.66-13.55Z"/><path class="cls-3" d="M607.93,159.24s11.46,36.13,55.08,49.8c38.61,12.09,107.59,20.04,116.84,108.46,2.19,20.93-.95,42.07-8.78,61.6-3.78,9.41-7.42,18.46-8.02,19.87,0,0,31.73,3.97,67.42-55.08,0,0,10.58,126.47-109.29,156,0,0,17.89,17.49,70.95,1.76,0,0-38.34,51.56-137.49,26.88,0,0-13.66-51.12-32.17-65.66,0,0,69.75,10.47,92.54-76.68,8.2-31.35-13.98-70.04-49.35-92.37-43.63-27.54-83.13-68.2-57.73-134.57Z"/><path class="cls-4" d="M721.19,499.88c119.86-29.52,109.29-156,109.29-156-35.69,59.05-67.42,55.08-67.42,55.08,45.5-96.56-32.28-145.81-67.09-153.3-34.81-7.49-47.59-20.71-47.59-20.71,22.82,43.59,105.28,79.54,66.71,161.25l-.06-.02c-22.79,87.15-92.54,76.68-92.54,76.68,18.51,14.54,32.17,65.66,32.17,65.66,99.15,24.68,137.49-26.88,137.49-26.88-53.06,15.73-70.95-1.76-70.95-1.76Z"/><path class="cls-3" d="M322.18,592.41c-.72.02-1.43.02-2.15,0-15.46-.58-28.88-13.63-30.55-29.71-4.36-42.04,45.39-72.41,81.45-77.32h0c22.02-3.01,46.15-1.06,66.2,5.33,26.2,8.35,44.36,23.73,52.52,44.48,6.8,17.31,4.83,33.55-5.28,43.47-9.97,9.78-25.37,11.36-42.26,4.34-7.37-3.06-13.82-6.75-19.52-10.01-14.1-8.07-23.42-13.4-40.3-8.74-6.63,1.83-15.15,7.16-23.39,12.32-12.66,7.92-24.65,15.43-36.71,15.84ZM374.13,508.84h0c-26.07,3.56-63.74,25.87-61.09,51.41.45,4.3,4.2,8.34,7.87,8.48,5.49.21,16.54-6.7,25.41-12.25,9.68-6.06,19.69-12.33,29.65-15.08,26.39-7.28,43.38,2.43,58.37,11.01,5.34,3.05,10.85,6.21,16.85,8.7,7.46,3.1,13.82,3.34,16.59.62,2.28-2.24,3.6-8.26-.18-17.89-12.97-33.01-64.22-38.99-93.47-35Z"/><path class="cls-4" d="M372.52,497.1c36.38-4.96,90.94,3.84,106.09,42.41,10.24,26.07-5.2,43.67-31.98,32.54-24.04-9.99-37.56-27.5-67.52-19.23-18.9,5.22-42.36,28.36-58.66,27.75-9.99-.37-18.2-9.37-19.21-19.1-3.58-34.56,41.6-60.32,71.27-64.37Z"/><polygon class="cls-2" points="599.4 304.01 610.98 347.17 654.14 335.59 622.56 367.17 654.14 398.75 610.98 387.17 599.4 430.33 587.82 387.17 544.66 398.75 576.24 367.17 544.66 335.59 587.82 347.17 599.4 304.01"/><path class="cls-1" d="M83.08,742.18c-8.56-34.62-17.22-69.21-26-103.77,9.05-1.29,13.58-1.92,22.63-3.14,3.47,15.9,6.92,31.8,10.35,47.71,2.51,13.17,5.02,26.34,7.52,39.51,1.57-.21,2.36-.31,3.94-.52-1.85-13.26-3.69-26.52-5.54-39.77,1.36-16.32,2.76-32.64,4.22-48.96,9.6-1.24,19.2-2.43,28.81-3.57,5.4,15.47,10.75,30.95,16.05,46.45,1.45,13.31,2.89,26.62,4.34,39.92,1.58-.18,2.37-.27,3.94-.46-.8-13.38-1.59-26.77-2.36-40.15-.56-16.27-1.1-32.53-1.62-48.8,9.07-1.03,13.61-1.52,22.69-2.48-.06,35.66-.01,71.32.15,106.98-11.87,1.3-23.73,2.67-35.59,4.1-2.98-9.6-5.97-19.19-8.99-28.78-2.99-19.51-5.99-39.01-9.01-58.51-1.55.19-2.33.29-3.88.48,1.84,19.65,3.7,39.29,5.56,58.94-.58,10.03-1.14,20.07-1.68,30.1-11.85,1.5-23.7,3.08-35.53,4.72Z"/><path class="cls-1" d="M187.89,729.45c-3.68-35.27-7.36-70.54-11.03-105.81,9.02-.94,13.53-1.4,22.56-2.27,3.43,35.29,6.86,70.59,10.29,105.88-8.73.85-13.09,1.29-21.81,2.2Z"/><path class="cls-1" d="M217.71,726.49c-3.34-35.3-6.68-70.6-10.02-105.91,10.88-1.01,21.77-1.98,32.66-2.92,3.96,11.01,7.89,22.02,11.79,33.05,4.21,18.02,8.38,36.05,12.51,54.09,1.52-.12,2.28-.18,3.81-.3-2.49-14.26-4.99-28.51-7.5-42.76-1.79-15.11-3.59-30.22-5.4-45.33,8.73-.69,13.1-1.03,21.84-1.66,2.57,35.37,5.14,70.73,7.71,106.1-11.07.83-22.14,1.69-33.21,2.59-3.88-11.33-7.79-22.66-11.73-33.97-3.57-17.8-7.17-35.59-10.79-53.38-1.68.15-2.52.22-4.19.37,2.73,15.86,5.44,31.73,8.13,47.6,1.84,13.5,3.66,27,5.48,40.5-8.44.74-12.66,1.13-21.1,1.92Z"/><path class="cls-1" d="M293.13,720.28c-2.48-35.37-4.96-70.75-7.44-106.12,10.19-.72,20.39-1.39,30.59-2,11.31-.68,19.61.99,24.88,4.95,5.26,3.96,8.21,10.81,8.92,20.48.45,6.14.85,11.99,1.18,17.52.33,5.53.61,11.07.84,16.6.23,5.54.41,11.4.59,17.55.28,9.73-1.91,16.87-6.58,21.38-4.67,4.51-12.46,7.06-23.39,7.72-9.86.59-19.73,1.24-29.58,1.93ZM313.88,701.31c3.11-.2,4.66-.29,7.77-.48,3.08-.19,5.39-.97,6.92-2.34,1.54-1.38,2.25-3.27,2.18-5.65-.15-4.72-.28-9.46-.48-14.16-.2-4.69-.43-9.39-.7-14.08-.27-4.69-.58-9.39-.92-14.1-.34-4.71-.75-9.43-1.15-14.09-.2-2.33-1.14-4.1-2.86-5.26-1.72-1.16-4.16-1.65-7.31-1.46-3.18.19-4.77.29-7.94.49,1.49,23.71,2.99,47.42,4.48,71.13Z"/><path class="cls-1" d="M378.78,715.46c-.43-10.1-.64-15.15-1.07-25.24,0-.05,0-.08,0-.13-8.53-26.67-17.22-53.3-26.06-79.87,9.23-.46,13.85-.67,23.08-1.06,3.03,10.2,4.54,15.3,7.53,25.51,1.17,10.38,2.33,20.76,3.48,31.13,1.66-.07,2.49-.1,4.15-.16.34-10.44.69-20.87,1.05-31.31,2.19-10.41,3.29-15.61,5.52-26.02,9.23-.33,13.85-.48,23.09-.74-6.75,27.18-13.34,54.4-19.77,81.65v.13c.36,10.1.54,15.15.9,25.25-8.75.31-13.13.48-21.88.85Z"/><path class="cls-1" d="M484.59,714.09c-10.99.09-18.83-1.85-23.55-5.9-4.72-4.05-7.36-10.9-7.72-20.42-.14-3.65-.24-7.93-.38-12.76-.14-4.83-.26-9.85-.35-15.06-.1-5.21-.16-10.24-.2-15.09-.04-4.85-.08-9.17-.09-12.93-.02-8.09,2.45-14.6,7.37-19.44,4.92-4.84,12.93-7.35,24.01-7.44,10.87-.09,18.76,1.94,23.64,6.04,4.88,4.09,7.44,10.93,7.74,20.44.05,1.46.07,3.05.07,4.75,0,1.71-.03,3.41-.08,5.12-.05,1.71-.1,3.29-.15,4.75-8.95-.01-13.42,0-22.36.05.04-1.64.08-3.58.12-5.82.04-2.24.05-4.48.04-6.72-.01-2.24-.05-4.18-.11-5.82-.07-2.12-.86-3.76-2.39-4.91-1.54-1.14-3.65-1.7-6.36-1.68-2.85.02-5.07.62-6.63,1.79s-2.39,2.82-2.46,4.95c-.16,4.65-.23,9.69-.24,15.1-.01,5.41.01,10.93.08,16.55.06,5.63.17,11.14.3,16.52.14,5.38.32,10.39.58,14.99.12,2.17.96,3.83,2.52,4.99,1.55,1.16,3.72,1.72,6.51,1.7,2.88-.02,5.1-.63,6.66-1.81,1.56-1.18,2.35-2.87,2.39-5.03.03-1.59.07-3.51.08-5.75s0-4.48-.04-6.72c-.04-2.24-.09-4.15-.14-5.75,8.87-.05,13.31-.06,22.18-.05.09,2.13.14,4.54.14,7.25,0,2.7-.07,5.14-.16,7.25-.38,9.5-2.87,16.42-7.67,20.54-4.8,4.13-12.55,6.2-23.3,6.29Z"/><path class="cls-1" d="M522.17,712.67c.13-35.46.25-70.92.38-106.38,9.06.03,13.59.06,22.64.16-.38,35.46-.75,70.92-1.13,106.37-8.76-.09-13.14-.12-21.9-.16Z"/><path class="cls-1" d="M565.88,713.14c.52-29.6,1.04-59.21,1.56-88.81-7.72-.14-11.57-.19-19.29-.28.08-7.02.12-10.53.2-17.55,20.48.27,40.95.71,61.43,1.3-.22,7.02-.32,10.53-.54,17.54-7.71-.24-11.57-.34-19.29-.53-.73,29.6-1.46,59.2-2.19,88.8-8.76-.22-13.13-.31-21.89-.46Z"/><path class="cls-1" d="M626.74,714.8c.38-10.1.56-15.15.94-25.25,0-.05,0-.08,0-.13-6.38-27.27-12.93-54.5-19.63-81.69,9.24.28,13.85.43,23.09.78,2.21,10.41,3.3,15.61,5.47,26.03.34,10.44.67,20.88.99,31.31,1.66.07,2.49.1,4.15.17,1.17-10.38,2.35-20.75,3.54-31.13,3.01-10.2,4.52-15.3,7.57-25.49,9.23.41,13.85.63,23.08,1.1-8.89,26.56-17.62,53.16-26.2,79.82,0,.05,0,.08,0,.13-.45,10.1-.67,15.14-1.12,25.24-8.75-.39-13.13-.57-21.88-.89Z"/><path class="cls-1" d="M702.2,718.53c2.18-35.39,4.35-70.79,6.53-106.18,17.39,1.1,34.76,2.31,52.14,3.63-.54,7-.82,10.5-1.36,17.5-9.78-.77-19.57-1.48-29.37-2.15-.71,10.35-1.06,15.52-1.77,25.87,11.06.76,16.59,1.16,27.64,2.02-.54,7-.81,10.5-1.35,17.5-10.99-.85-16.49-1.25-27.49-2.01-1.03,15.08-2.07,30.16-3.1,45.24-8.74-.6-13.12-.88-21.86-1.42Z"/><path class="cls-1" d="M787.3,726.27c-10.91-.97-18.55-3.67-22.93-8.16-4.38-4.49-6.29-11.53-5.67-21.07.88-13.46,1.84-26.99,2.9-40.42,1.06-13.41,2.26-26.88,3.49-40.31,9.04.71,13.55,1.09,22.59,1.87-.97,8.86-1.87,18.1-2.73,27.73-.86,9.62-1.66,19.26-2.41,28.89-.75,9.63-1.42,18.95-2.13,27.78-.17,2.15.45,3.9,1.91,5.2,1.46,1.31,3.6,2.08,6.43,2.33,2.87.26,5.11-.13,6.7-1.16,1.59-1.03,2.48-2.64,2.69-4.79.86-8.82,1.85-18.11,2.81-27.72.96-9.61,1.87-19.24,2.73-28.86.86-9.62,1.6-18.88,2.21-27.77,9.03.83,13.54,1.26,22.57,2.15-1.12,13.44-2.29,26.91-3.62,40.3-1.33,13.4-2.83,26.87-4.36,40.29-1.09,9.51-4.19,16.09-9.27,19.74-5.08,3.65-13.04,4.96-23.9,3.99Z"/><path class="cls-1" d="M824.95,728.51c3.57-35.28,7.15-70.56,10.72-105.84,9.68.98,19.35,2,29.01,3.07,11.22,1.24,19.09,4.18,23.59,8.75,4.5,4.57,6.35,11.49,5.6,20.72-.2,2.47-.4,4.64-.6,6.49-.2,1.85-.42,3.7-.67,5.54-.25,1.84-.58,4-.97,6.45-.9,5.68-2.53,10.25-4.9,13.67-2.38,3.42-5.71,5.86-10.01,7.32,3.09,13.52,6.12,27.05,9.1,40.59-9.23-1.12-13.85-1.66-23.09-2.71-2.33-12.32-4.7-24.62-7.12-36.92-2-.22-3-.33-5-.55-1.29,11.9-2.58,23.8-3.87,35.69-8.72-.95-13.08-1.4-21.81-2.29ZM852.52,677.66c2.54.28,3.81.41,6.36.7,3.1.34,5.51-.03,7.24-1.13,1.72-1.1,2.78-2.79,3.2-5.06.39-2.14.75-4.39,1.07-6.74.32-2.35.59-4.71.8-7.07.22-2.36.37-4.64.47-6.8.11-2.35-.55-4.24-2-5.68-1.45-1.43-3.75-2.33-6.89-2.67-2.57-.28-3.86-.42-6.43-.7-1.27,11.72-2.54,23.44-3.81,35.17Z"/><path class="cls-1" d="M919.1,740.84c-10.63-1.41-17.95-4.4-21.97-9.06-4.02-4.66-5.73-11.81-4.96-21.31.11-1.41.29-2.97.5-4.66.21-1.69.46-3.38.77-5.06.3-1.68.67-3.21,1.08-4.59,8.29,1.02,12.44,1.54,20.72,2.61-.61,3.18-1.14,6.33-1.59,9.45-.45,3.11-.7,5.99-.74,8.62-.04,2.18.61,3.96,1.95,5.31,1.33,1.36,3.45,2.23,6.37,2.61,2.86.38,5.04.08,6.54-.91,1.49-.98,2.54-2.54,3.11-4.65.4-1.46.73-2.93,1-4.39.27-1.46.47-2.93.6-4.41.13-1.48.17-3,.2-4.5.03-1.85-.36-3.63-1.23-5.26-.88-1.64-2.46-2.88-4.74-3.72-4.68-1.75-7.02-2.62-11.7-4.35-4.95-1.84-8.79-4.06-11.51-6.65-2.72-2.6-4.56-5.62-5.51-9.09-.95-3.47-1.25-7.43-.85-11.83.18-1.93.37-3.67.56-5.19.19-1.52.39-3.1.65-4.71,1-6.21,2.89-11.19,5.49-14.8,2.6-3.61,6.28-6.02,11.06-7.23,4.77-1.21,10.95-1.32,18.5-.32,10.65,1.41,18.1,4.51,22.32,9.24,4.22,4.73,5.85,11.87,4.98,21.35-.17,1.9-.48,4.21-.95,6.92-.46,2.71-.93,5.22-1.41,7.52-8.52-1.21-12.79-1.8-21.32-2.95.56-3.01,1.07-6.03,1.53-9.05.46-3.02.79-6.1,1.08-9.11.21-2.09-.4-3.86-1.91-5.22-1.51-1.37-3.66-2.24-6.45-2.6-2.99-.39-5.28-.11-6.87.84-1.59.95-2.68,2.48-3.24,4.54-.59,2.19-1.03,4.45-1.32,6.73-.3,2.29-.45,4.58-.43,6.85.01,1.78.51,3.48,1.45,5.08.95,1.6,2.64,2.82,5.09,3.68,4.08,1.45,6.13,2.18,10.2,3.64,5.36,1.93,9.46,4.28,12.31,7.02,2.85,2.75,4.73,5.92,5.65,9.52.92,3.6,1.14,7.68.7,12.22-.1,1.02-.22,2.07-.38,3.17-.16,1.1-.34,2.19-.54,3.28-.2,1.09-.4,2.14-.6,3.14-1.79,9.42-5.26,15.84-10.4,19.28-5.14,3.44-13.06,4.42-23.79,3.01Z"/><g id="xDaSDa.tif"><path class="cls-4" d="M94.98,610.65l7.72-28.63-8.31-3.4c-1.44,8.01-9.52,12.32-16.63,7.59s-6.04-14.77,1.28-18.16c-2.35-3.83-6.04-6.91-8.74-10.77s-5.35-8.7-7.23-13.15c-18.3,13.03-27.35-19.2-5.15-18.13-.31-9.24-.3-18.6,2.75-27.43l-.5-.9c-9.6.52-14.81-11.36-8-18.12,5.05-5.01,11.99-3.67,16.59,1.14,5.39-7.5,11.7-14.54,19.75-19.24-.22-2.1-2.19-2.71-3.22-4.87-3.31-7.01,1.79-15.03,9.5-15.25,6.5-.18,11.48,5.61,11.1,11.96,8.83-2.95,18.96-3.93,28.16-2.4-3.24-12.34,14.28-19.27,19.97-8.17,2.83,5.52.59,8.33-1.47,13.29,8.76,3.21,16.13,9.19,22.75,15.6l.74-.06c2.62-6.86,12.71-7.8,17.28-2.15,5.74,7.07,1.44,16.37-7.17,17.81,4.17,8.61,6.85,17.63,6.96,27.26,9-2.42,17.23,3.05,15.06,12.94-1.55,7.09-10.87,9.94-16.56,5.76-1.1,4.7-2.83,9.81-4.9,14.18-2.02,4.26-5.13,7.92-6.8,12.09,7.39,2.06,10.12,10.9,5.06,16.88-5.75,6.8-15.63,4.16-18.41-3.87l-4.67,2.96,13.21,23.81-14.57,1.84-10.06-20.06-9.76,2.93c8.57,20.98-23.85,23.74-18.95,1.61l-6.74-.46-4.99,23.14-15.1,2.39ZM116.68,458.56c-11.29,1.26-21.75,6.53-30.34,13.71l34.48,34.95-4.14-48.66ZM124.36,457.91l4.14,48.66,28.08-40.28c-9.68-5.62-20.88-9.06-32.22-8.39ZM115.1,512.87l-34.68-34.7c-7.37,8.47-12.95,19.38-14.15,30.58l48.83,4.12ZM182.52,498.86c-3.09-10.79-10.39-20.72-19.11-27.75l-28.32,40.06,47.43-12.31ZM114.22,520.69l-48.85-4.1c-.62,11.34,2.92,22.54,8.43,32.3l40.42-28.2ZM184.72,506.44l-47.43,12.54,44.3,20.77c4.32-10.37,5.56-22.27,3.12-33.31ZM118.93,527.52l-40.43,27.94c6.78,8.59,16,15.19,26.2,19.11l14.22-47.05ZM157.53,568.58c.71.41,3.11-1.62,3.88-2.16,6.89-4.9,12.87-12.11,16.94-19.46l-44.57-20.71,23.74,42.33ZM117.53,577.66c9.86,1.38,20.54.63,29.58-3.78l-19.33-36.27-10.25,40.05Z"/></g></svg>