<?xml version="1.0" encoding="UTF-8"?><svg id="Layer_1" xmlns="http://www.w3.org/2000/svg" viewBox="0 0 1024 1024"><defs><style>.cls-1{fill:#005c96;}.cls-2{fill:#ec3540;}.cls-3{fill:#fff;}.cls-4{fill:#25bfef;}</style></defs><path class="cls-1" d="M941.56,554.65l-.66-20.49h-17.85l-.66-10.58h-28.42v22.47l-24.46-1.98-.66-37.02h-39v36.35l-8.59-2.64v-17.19h-33.71l-.66,17.19-35.03-1.32,1.32-15.86c39.12,11.68,125.03-87.14,120.96-114.35l-33.05,19.83c35.92-44.39,44.75-146.47-1.98-200.94,0,.06,5.27,31.75-17.19,55.52-2.17-171.64-211.83-81.75-182.44-216.81,0,0-77.34,33.05-65.44,129.56,11.9,96.51,67.42,66.76,105.76,126.91s-56.13,105.92-90.51,67.77h-44.77v-38.23h-12.34v-214.61h-14.98v-34.48h-3.97V26.86h-4.41v76.9h-3.97v27.1h-20.27v-27.1h-3.86V36.55h-4.29v67.2h-3.97l-.23,34.48h-10.13v97.5h-25.56v117.11h-14.1l.42,99.3-7.47.72h0s-19.61-221.1-19.61-221.1h-11.9l-1.98-101.13h-7.27l-1.98,101.13h-24.46l-1.98-101.13h-7.27l-1.98,101.13h-11.7l-16.95,219.11h0l-44.95,1.32-.66,23.13-14.54,11.9-1.32-73.21h-9.16l-.1-70.4h-7.16s-.11-43.46-.11-43.46h0s-4.52-5.98-4.52-5.98l-.1-6.97-9.25-2.92s0,0,0,0l-5.29-60.81-5.95,60.81-8.7,2.92h0s-.5,6.97-.5,6.97h0s-4.68,5.98-4.68,5.98v44.83c-4.81.04-5.21.02-5.21.02l-.08,69.01h-10.58v10.73c1.69,1.19,3.31,2.42,4.82,3.66,1.91-.96,4.01-1.63,6.24-1.99,7.7-1.23,15.42,1.64,20.16,7.48,5.04,6.22,6.42,14.24,3.69,21.46-1.18,3.12-3.07,5.89-5.47,8.15,1.34,3.86,2.35,7.68,3.02,11.49,3.78.91,7.22,2.73,10.01,5.39,5.45,5.2,7.57,12.78,5.81,20.81-1.48,6.77-6.39,12.33-13.14,14.89-2.14.81-4.37,1.28-6.6,1.41-.78,2.09-1.63,4.11-2.53,6-.76,1.61-1.6,3.09-2.43,4.46,1.49,1.96,2.65,4.19,3.39,6.62,2.15,7.01.57,14.59-4.24,20.28-2.89,3.42-6.57,5.79-10.59,6.96l4.09,7.37c102.59-12.13,217.81-18.94,339.61-18.94,163.94,0,316.01,12.33,441.32,33.36v-25l-31.07-3.97Z"/><path class="cls-1" d="M91.52,570.41c-5.12.71-10.4-.52-15.06-3.62-3.34-2.22-5.93-5.29-7.58-8.8l-4.47.62.59,25.37c.04,1.6,1.47,2.8,3.05,2.55,3.33-.52,9.65-1.43,19.82-2.57l3.66-13.55Z"/><path class="cls-3" d="M614.46,130.63s11.46,36.13,55.08,49.8c38.61,12.09,107.59,20.04,116.84,108.46,2.19,20.93-.95,42.07-8.78,61.6-3.78,9.41-7.42,18.46-8.02,19.87,0,0,31.73,3.97,67.42-55.08,0,0,10.58,126.47-109.29,156,0,0,17.89,17.49,70.95,1.76,0,0-38.34,51.56-137.49,26.88,0,0-13.66-51.12-32.17-65.66,0,0,69.75,10.47,92.54-76.68,8.2-31.35-13.98-70.04-49.35-92.37-43.63-27.54-83.13-68.2-57.73-134.57Z"/><path class="cls-4" d="M727.71,471.27c119.86-29.52,109.29-156,109.29-156-35.69,59.05-67.42,55.08-67.42,55.08,45.5-96.56-32.28-145.81-67.09-153.3-34.81-7.49-47.59-20.71-47.59-20.71,22.82,43.59,105.28,79.54,66.71,161.25l-.06-.02c-22.79,87.15-92.54,76.68-92.54,76.68,18.51,14.54,32.17,65.66,32.17,65.66,99.15,24.68,137.49-26.88,137.49-26.88-53.06,15.73-70.95-1.76-70.95-1.76Z"/><path class="cls-3" d="M328.7,563.8c-.72.02-1.43.02-2.15,0-15.46-.58-28.88-13.63-30.55-29.71-4.36-42.04,45.39-72.41,81.45-77.32h0c22.02-3.01,46.15-1.06,66.2,5.33,26.2,8.35,44.36,23.73,52.52,44.48,6.8,17.31,4.83,33.55-5.28,43.47-9.97,9.78-25.37,11.36-42.26,4.34-7.37-3.06-13.82-6.75-19.52-10.01-14.1-8.07-23.42-13.4-40.3-8.74-6.63,1.83-15.15,7.16-23.39,12.32-12.66,7.92-24.65,15.43-36.71,15.84ZM380.65,480.23h0c-26.07,3.56-63.74,25.87-61.09,51.41.45,4.3,4.2,8.34,7.87,8.48,5.49.21,16.54-6.7,25.41-12.25,9.68-6.06,19.69-12.33,29.65-15.08,26.39-7.28,43.38,2.43,58.37,11.01,5.34,3.05,10.85,6.21,16.85,8.7,7.46,3.1,13.82,3.34,16.59.62,2.28-2.24,3.6-8.26-.18-17.89-12.97-33.01-64.22-38.99-93.47-35Z"/><path class="cls-4" d="M379.04,468.49c36.38-4.96,90.94,3.84,106.09,42.41,10.24,26.07-5.2,43.67-31.98,32.54-24.04-9.99-37.56-27.5-67.52-19.23-18.9,5.22-42.36,28.36-58.66,27.75-9.99-.37-18.2-9.37-19.21-19.1-3.58-34.56,41.6-60.32,71.27-64.37Z"/><polygon class="cls-2" points="605.92 275.4 617.5 318.56 660.66 306.98 629.08 338.56 660.66 370.14 617.5 358.56 605.92 401.72 594.34 358.56 551.18 370.14 582.76 338.56 551.18 306.98 594.34 318.56 605.92 275.4"/><g id="xDaSDa.tif"><path class="cls-4" d="M101.5,582.03l7.72-28.63-8.31-3.4c-1.44,8.01-9.52,12.32-16.63,7.59-6.86-4.56-6.04-14.77,1.28-18.16-2.35-3.83-6.04-6.91-8.74-10.77s-5.35-8.7-7.23-13.15c-18.3,13.03-27.35-19.2-5.15-18.13-.31-9.24-.3-18.6,2.75-27.43l-.5-.9c-9.6.52-14.81-11.36-8-18.12,5.05-5.01,11.99-3.67,16.59,1.14,5.39-7.5,11.7-14.54,19.75-19.24-.22-2.1-2.19-2.71-3.22-4.87-3.31-7.01,1.79-15.03,9.5-15.25,6.5-.18,11.48,5.61,11.1,11.96,8.83-2.95,18.96-3.93,28.16-2.4-3.24-12.34,14.28-19.27,19.97-8.17,2.83,5.52.59,8.33-1.47,13.29,8.76,3.21,16.13,9.19,22.75,15.6l.74-.06c2.62-6.86,12.71-7.8,17.28-2.15,5.74,7.07,1.44,16.37-7.17,17.81,4.17,8.61,6.85,17.63,6.96,27.26,9-2.42,17.23,3.05,15.06,12.94-1.55,7.09-10.87,9.94-16.56,5.76-1.1,4.7-2.83,9.81-4.9,14.18-2.02,4.26-5.13,7.92-6.8,12.09,7.39,2.06,10.12,10.9,5.06,16.88-5.75,6.8-15.63,4.16-18.41-3.87l-4.67,2.96,13.21,23.81-14.57,1.84-10.06-20.06-9.76,2.93c8.57,20.98-23.85,23.74-18.95,1.61l-6.74-.46-4.99,23.14-15.1,2.39ZM123.2,429.95c-11.29,1.26-21.75,6.53-30.34,13.71l34.48,34.95-4.14-48.66ZM130.88,429.3l4.14,48.66,28.08-40.28c-9.68-5.62-20.88-9.06-32.22-8.39ZM121.62,484.26l-34.68-34.7c-7.37,8.47-12.95,19.38-14.15,30.58l48.83,4.12ZM189.04,470.25c-3.09-10.79-10.39-20.72-19.11-27.75l-28.32,40.06,47.43-12.31ZM120.74,492.08l-48.85-4.1c-.62,11.34,2.92,22.54,8.43,32.3l40.42-28.2ZM191.24,477.82l-47.43,12.54,44.3,20.77c4.32-10.37,5.56-22.27,3.12-33.31ZM125.45,498.9l-40.43,27.94c6.78,8.59,16,15.19,26.2,19.11l14.22-47.05ZM164.05,539.97c.71.41,3.11-1.62,3.88-2.16,6.89-4.9,12.87-12.11,16.94-19.46l-44.57-20.71,23.74,42.33ZM124.05,549.04c9.86,1.38,20.54.63,29.58-3.78l-19.33-36.27-10.25,40.05Z"/></g><path class="cls-1" d="M223.19,896.77c-15.47-101.63-31.51-203.14-48.12-304.53,19.86-2.51,39.75-4.8,59.65-6.88,5.93,46.66,11.77,93.34,17.53,140.04,3.92,38.61,7.8,77.23,11.63,115.86,3.39-.33,6.78-.66,10.17-.98-2.13-38.79-4.26-77.59-6.39-116.38,6.74-47.26,13.73-94.49,20.95-141.69,25.33-2.15,50.68-3.95,76.05-5.4,10.61,45.94,20.98,91.94,31.12,138,.68,38.9,1.37,77.79,2.06,116.69,3.4-.16,6.8-.32,10.2-.46,1.02-38.97,2.09-77.94,3.19-116.91,2.35-47.27,4.79-94.54,7.32-141.8,19.97-.75,39.95-1.29,59.93-1.62-9.2,103.22-17.83,206.49-25.89,309.79-30.57.83-61.13,2.19-91.66,4.09-5.52-28.41-11.12-56.81-16.8-85.19-3.49-57.16-7.04-114.32-10.63-171.47-3.4.24-6.8.48-10.21.72.56,57.37,1.17,114.73,1.84,172.09-3.59,29.04-7.11,58.08-10.54,87.13-30.5,2.44-60.98,5.41-91.4,8.92Z"/><path class="cls-1" d="M598.72,884.45c-28.17-.8-48.16-6.95-60.08-19.01-11.91-12.05-18.25-31.92-18.91-59.75-.13-10.69-.27-23.06-.41-37.1-.14-14.04-.22-28.63-.23-43.77-.01-15.14.04-29.76.16-43.87.12-14.11.24-26.63.36-37.59.37-23.57,7.07-42.31,20.24-56.09,13.16-13.76,34.39-20.51,63.52-19.68,28.6.83,49.19,7.79,61.67,20.34,12.48,12.57,18.65,32.77,18.6,60.49,0,4.26-.07,8.86-.22,13.82-.15,4.96-.36,9.91-.64,14.85-.28,4.95-.55,9.54-.8,13.78-19.4-1.13-38.81-2.06-58.23-2.77.22-4.76.45-10.39.71-16.89.25-6.5.44-13,.56-19.5.12-6.5.16-12.14.12-16.91-.01-6.19-1.99-11.03-5.92-14.52-3.94-3.49-9.46-5.35-16.54-5.55-7.48-.21-13.31,1.32-17.48,4.58-4.17,3.26-6.41,7.98-6.74,14.16-.66,13.52-1.17,28.13-1.52,43.84-.35,15.71-.61,31.75-.77,48.11-.16,16.36-.23,32.37-.19,48.02.03,15.65.24,30.19.61,43.59.19,6.32,2.25,11.22,6.18,14.72,3.93,3.5,9.47,5.34,16.64,5.55,7.42.21,13.17-1.3,17.27-4.57,4.09-3.27,6.26-8.05,6.51-14.36.21-4.63.42-10.2.61-16.7.19-6.5.31-13,.38-19.51.06-6.5.07-12.08.04-16.72,19.13.72,38.26,1.64,57.38,2.77.07,6.19-.02,13.22-.25,21.07-.24,7.85-.58,14.86-1.02,21.02-1.61,27.76-8.77,47.24-21.39,58.58-12.64,11.34-32.66,16.36-60.2,15.56Z"/><path class="cls-1" d="M723.12,887.12c4.01-102.91,8.02-205.82,12.04-308.74,45.69,3.49,91.31,8.11,136.82,13.86-1.09,16.94-2.18,33.87-3.27,50.81-25.54-3.23-51.12-6.09-76.72-8.6-1.25,25.06-2.5,50.12-3.76,75.18,23.95,2.35,47.89,5.01,71.79,8-1.08,16.94-2.16,33.88-3.23,50.82-23.67-2.96-47.37-5.6-71.1-7.92-2.19,43.82-4.38,87.65-6.57,131.47-18.65-1.83-37.32-3.45-56-4.88Z"/></svg>