<?xml version="1.0" encoding="UTF-8" standalone="no"?>
<!DOCTYPE svg PUBLIC "-//W3C//DTD SVG 1.1//EN" "http://www.w3.org/Graphics/SVG/1.1/DTD/svg11.dtd">
<svg width="100%" height="100%" viewBox="0 0 692 677" version="1.1" xmlns="http://www.w3.org/2000/svg" xmlns:xlink="http://www.w3.org/1999/xlink" xml:space="preserve" xmlns:serif="http://www.serif.com/" style="fill-rule:evenodd;clip-rule:evenodd;stroke-miterlimit:10;">
    <g transform="matrix(1,0,0,1,-248,-142)">
        <path d="M695.7,612.11L741.23,630.77C813.07,638.27 895.08,590.39 900.89,562.26L861.38,569.79C912.54,539.22 957.93,442.4 931.74,372.21C931.73,372.27 925.47,405.21 894.92,420.42C954.56,251.48 716.8,264.1 794.2,142.36C794.2,142.36 706.54,146.91 683.47,245.74C660.4,344.57 725.5,335.41 741.42,408.13C757.34,480.86 651.38,497.41 619.39,448.79C613.09,450.21 650.02,566.66 642.04,590.42" style="fill:rgb(0,92,150);fill-rule:nonzero;"/>
        <path d="M746.73,195.87C746.73,195.87 744.95,235.39 782.78,264.48C816.26,290.22 880.98,322.83 858.22,412.78C852.83,434.07 842.15,453.66 827.45,469.97C820.36,477.83 813.54,485.39 812.44,486.55C812.44,486.55 842.1,501.85 898.32,456.85C898.32,456.85 863.17,584.56 735.12,570.36C735.12,570.36 746.35,593.94 803.99,597.62C803.99,597.62 747.88,634.34 659.62,574.48C659.62,574.48 672.4,534.95 659.51,514.05C659.51,514.05 716.3,533.94 769.99,456.76C789.3,428.99 781.5,383.1 754.88,348.5C722.05,305.82 697.98,251.77 746.75,195.89L746.73,195.87Z" style="fill:white;fill-rule:nonzero;"/>
        <path d="M735.11,570.35C863.16,584.56 898.31,456.84 898.31,456.84C842.09,501.85 812.43,486.54 812.43,486.54C891.75,408.31 833.27,332.08 801.86,312.21C770.45,292.34 762.69,274.79 762.69,274.79C769.36,325.71 837.21,390.6 770.03,456.77L769.98,456.73C716.3,533.91 632.04,503.71 632.04,503.71C644.94,524.62 659.61,574.46 659.61,574.46C747.87,634.31 803.98,597.6 803.98,597.6C746.34,593.92 735.11,570.34 735.11,570.34L735.11,570.35Z" style="fill:rgb(37,191,239);fill-rule:nonzero;"/>
        <path d="M521.53,253.1L567.47,424.36L738.73,378.41L613.42,503.72L738.73,629.03L567.47,583.09L521.53,754.34L475.58,583.09L304.32,629.03L429.63,503.72L304.32,378.41L475.58,424.36L521.53,253.1Z" style="fill:rgb(236,53,64);fill-rule:nonzero;stroke:rgb(0,92,150);stroke-width:33.26px;"/>
    </g>
</svg>
